<?xml version="1.0" encoding="utf-8"?>
<!-- Generator: Adobe Illustrator 23.0.1, SVG Export Plug-In . SVG Version: 6.00 Build 0)  -->
<svg version="1.1" id="Layer_1" xmlns="http://www.w3.org/2000/svg" xmlns:xlink="http://www.w3.org/1999/xlink" x="0px" y="0px"
	 viewBox="0 0 240 240" style="enable-background:new 0 0 240 240;" xml:space="preserve">
<style type="text/css">
	.st0{fill:#43D2FF;}
</style>
<title>Artboard 47</title>
<path class="st0" d="M96.6,101.2v-9.9c7.8-1.3,13.7-7.9,14.1-15.8c-0.7-9.7-9.1-17-18.8-16.4c-5.1,0-9.4-3.2-9.4-7s4.3-7,9.4-7
	s9.4,3.2,9.4,7h9.4c-0.4-7.9-6.2-14.5-14.1-15.8v-9.9h-9.4v9.9c-7.8,1.3-13.7,7.9-14.1,15.8c0.7,9.7,9.1,17,18.8,16.4
	c5.1,0,9.4,3.2,9.4,7s-4.3,7-9.4,7s-9.4-3.2-9.4-7h-9.4c0.4,7.9,6.2,14.5,14.1,15.8v9.9H96.6z"/>
<path class="st0" d="M208.6,150.8c-0.8-1.7-2.4-2.7-4.3-2.7h-32.8V26.2c0-2.6-2.1-4.7-4.7-4.7H129c7.7,6.8,13.4,15.5,16.5,25.3
	c1.7,5.5,2.6,11.2,2.6,16.9c0.1,17.7-8.3,34.4-22.5,45c-3.2,2.4-6.7,4.5-10.3,6.1v33.3H82.5c-1.8,0-3.5,1.1-4.3,2.7
	c-0.8,1.7-0.5,3.7,0.7,5.1l60.9,70.3c1.7,2,4.6,2.2,6.6,0.5c0.2-0.2,0.4-0.3,0.5-0.5l60.9-70.3C209.2,154.5,209.4,152.5,208.6,150.8
	z"/>
<path class="st0" d="M115.3,109.7c2.6-1.4,5.1-2.9,7.5-4.7c22.8-17.1,27.4-49.4,10.3-72.2c-2.9-3.9-6.4-7.3-10.3-10.3l-1.4-0.9
	c-16.4-11.5-38-12.5-55.4-2.4c-1.8,1-3.5,2.2-5.2,3.4c-13,9.7-20.6,25-20.6,41.2c0,1.6,0,3.3,0,4.7c2.5,28.4,27.6,49.3,55.9,46.8
	C102.9,114.6,109.4,112.8,115.3,109.7z M49.7,67.5c-0.1-1.2-0.1-2.5,0-3.8c0-13.3,6.2-25.8,16.9-33.7c1.4-1,2.8-2,4.2-2.8
	c6.4-3.7,13.7-5.7,21.1-5.7c9.1,0,18,2.9,25.3,8.4c10.6,8,16.9,20.5,16.9,33.8c1.1,23.3-16.9,43.1-40.2,44.1
	C70.5,109,50.8,90.9,49.7,67.6V67.5z"/>
</svg>
