<svg width="16" height="16" viewBox="0 0 16 16" style="fill: #fff" xmlns="http://www.w3.org/2000/svg">
    <path d="M15.637 3.011L13.95.381A.836.836 0 0013.247 0H2.752a.836.836 0 00-.704.38L.362 3.012C-.508 4.37.264 6.26 1.89 6.475c.117.015.236.022.356.022.768 0 1.45-.33 1.917-.84.467.51 1.15.84 1.917.84.769 0 1.45-.33 1.917-.84.467.51 1.15.84 1.917.84.769 0 1.45-.33 1.917-.84a2.6 2.6 0 002.273.818c1.631-.214 2.406-2.103 1.533-3.464zm-1.884 4.301c-.26 0-.517-.038-.766-.096V9.75H3.012V7.216c-.25.056-.507.096-.766.096-.156 0-.315-.01-.468-.03a3.332 3.332 0 01-.426-.091v4.997c0 .449.371.812.831.812h11.638c.46 0 .831-.363.831-.813V7.191c-.14.04-.28.073-.426.091-.158.02-.314.03-.473.03z"></path>
</svg>