<svg width="14" height="14" viewBox="0 0 14 14" fill="none" xmlns="http://www.w3.org/2000/svg">
<path d="M13.125 2.21875C13.125 1.45703 12.4805 0.8125 11.7188 0.8125H1.40625C0.615234 0.8125 0 1.45703 0 2.21875V12.5312C0 13.3223 0.615234 13.9375 1.40625 13.9375H11.7188C12.4805 13.9375 13.125 13.3223 13.125 12.5312V2.21875ZM10.5469 2.6875C10.9277 2.6875 11.25 3.00977 11.25 3.39062V6.67188C11.25 7.31641 10.4883 7.60938 10.0488 7.16992L9.11133 6.23242L3.36914 11.9746C3.22266 12.1211 3.01758 12.1211 2.87109 11.9746L1.96289 11.0664C1.81641 10.9199 1.81641 10.7148 1.96289 10.5684L7.70508 4.82617L6.76758 3.88867C6.29883 3.44922 6.62109 2.6875 7.26562 2.6875H10.5469Z" fill="#43D2FF"/>
</svg>
