<?xml version="1.0" encoding="utf-8"?>
<!-- Generator: Adobe Illustrator 25.2.0, SVG Export Plug-In . SVG Version: 6.00 Build 0)  -->
<svg version="1.1" id="Layer_1" xmlns="http://www.w3.org/2000/svg" xmlns:xlink="http://www.w3.org/1999/xlink" x="0px" y="0px"
	 viewBox="0 0 24 24" style="enable-background:new 0 0 24 24;" xml:space="preserve">
<style type="text/css">
	.st0{fill:#FFFFFF;}
</style>
<path class="st0" d="M4,4C2.9,4,2,4.9,2,6v11c0,1.1,0.9,2,2,2v1h2v-1h11v1h2v-1c1.1,0,2-0.9,2-2v-1h1v-2h-1V9h1V7h-1V6
	c0-1.1-0.9-2-2-2H4 M4,6h15v11H4V6 M13.5,7.5c-2.2,0-4,1.8-4,4s1.8,4,4,4s4-1.8,4-4S15.7,7.5,13.5,7.5 M5,9v5h2V9H5 M13.5,9.5
	c1.1,0,2,0.9,2,2s-0.9,2-2,2s-2-0.9-2-2S12.4,9.5,13.5,9.5z"/>
</svg>
